<!-- icon666.com - MILLIONS vector ICONS FREE --><svg version="1.1" id="Capa_1" xmlns="http://www.w3.org/2000/svg" xmlns:xlink="http://www.w3.org/1999/xlink" x="0px" y="0px" viewBox="0 0 496 496" style="enable-background:new 0 0 496 496;" xml:space="preserve"><g><path style="fill:#333333;" d="M104.088,212.392v-25.424c19.704-23.768,45.696-40.848,75.448-49.352l6.744-1.928l-4.392-15.384 l-6.752,1.928c-27.016,7.72-51.192,21.888-71.056,41.232V144c13.232,0,24-10.768,24-24s-10.768-24-24-24h-0.88 c10.408-10.176,16.888-24.336,16.888-40c0-30.88-25.12-56-56-56s-56,25.12-56,56c0,15.664,6.48,29.824,16.88,40h-0.88 c-13.232,0-24,10.768-24,24s10.768,24,24,24v224c-13.232,0-24,10.768-24,24v104h128V392c0-13.232-10.768-24-24-24v-88v-8 c0-57.344,46.656-104,104-104v-16C163.624,152,124.816,176.368,104.088,212.392z M88.088,188.688l-15.904-15.904l-11.312,11.312 l27.216,27.216v33.376l-48-48v-33.376l10.768,10.768l11.312-11.312L43.4,144h44.688V188.688z M88.088,356.688l-48-48v-33.376l48,48 V356.688z M24.088,56c0-22.056,17.944-40,40-40s40,17.944,40,40s-17.944,40-40,40S24.088,78.056,24.088,56z M16.088,120 c0-4.408,3.592-8,8-8h80c4.408,0,8,3.592,8,8c0,4.408-3.592,8-8,8h-80C19.68,128,16.088,124.408,16.088,120z M40.088,331.312 L76.776,368H40.088V331.312z M112.088,392v8h-16v16h16v64h-96v-64h64v-16h-64v-8c0-4.408,3.592-8,8-8h80 C108.496,384,112.088,387.592,112.088,392z M88.088,300.688l-48-48v-33.376l48,48V272v8V300.688z"></path><path style="fill:#333333;" d="M471.904,368V144c13.232,0,24-10.768,24-24s-10.768-24-24-24h-0.88 c10.4-10.176,16.88-24.336,16.88-40c0-30.88-25.12-56-56-56s-56,25.12-56,56c0,15.664,6.48,29.824,16.88,40h-0.88 c-13.232,0-24,10.768-24,24s10.768,24,24,24v19.464c-19.864-19.344-44.04-33.512-71.056-41.232l-6.744-1.928l-4.392,15.384 l6.744,1.928c29.752,8.504,55.752,25.576,75.456,49.352v25.424c-20.728-36.024-59.536-60.392-104-60.392v16 c57.344,0,104,46.656,104,104v8v88c-13.232,0-24,10.768-24,24v104h128V392C495.904,378.768,485.136,368,471.904,368z M419.216,368 l13.432-13.432l-11.312-11.312l-13.432,13.432v-33.376l48-48v33.376l-23.608,23.608l11.312,11.312l12.296-12.296V368H419.216z M407.904,211.312l48-48v33.376l-48,48V211.312z M391.904,56c0-22.056,17.944-40,40-40c22.056,0,40,17.944,40,40s-17.944,40-40,40 C409.848,96,391.904,78.056,391.904,56z M383.904,120c0-4.408,3.592-8,8-8h80c4.408,0,8,3.592,8,8c0,4.408-3.592,8-8,8h-80 C387.496,128,383.904,124.408,383.904,120z M452.592,144l-44.688,44.688V144H452.592z M407.904,272v-4.688l48-48v33.376l-48,48V280 V272z M383.904,480v-64h64.184v-16h-64.184v-8c0-4.408,3.592-8,8-8h80c4.408,0,8,3.592,8,8v8h-15.816v16h15.816v64H383.904z"></path></g><g><path style="fill:#FFA64D;" d="M247.992,193.504l-27.904-17.88c-10.6-6.784-19.52-13.624-27.264-20.92 c-12.624-11.88-25.44-27.576-24.704-53.92c0.656-23.664,19.504-43.304,42.912-44.696c14.4-0.824,27.768,4.688,36.96,14.616 c9.2-9.928,22.616-15.44,36.968-14.616c23.408,1.392,42.256,21.032,42.912,44.704c0.728,26.344-12.08,42.04-24.704,53.92 c-7.744,7.288-16.664,14.136-27.264,20.92L247.992,193.504z"></path><rect x="16.088" y="416" style="fill:#FFA64D;" width="96" height="32"></rect><rect x="384.088" y="416" style="fill:#FFA64D;" width="96" height="32"></rect></g></svg>