<?xml version="1.0" encoding="iso-8859-1"?>
<!-- Uploaded to: SVG Repo, www.svgrepo.com, Generator: SVG Repo Mixer Tools -->
<svg fill="#000000" height="800px" width="800px" version="1.1" id="Capa_1" xmlns="http://www.w3.org/2000/svg" xmlns:xlink="http://www.w3.org/1999/xlink" 
	 viewBox="0 0 295.87 295.87" xml:space="preserve">
<g>
	<path d="M295.432,258.389c-1.439-4.178-5.991-6.399-10.169-4.96l-19.73,6.794l-34.864-101.255c0.048-0.038,0.093-0.08,0.14-0.117
		c17.92-14.261,20.406-54.396,4.921-99.374c-6.33-18.374-14.907-35.043-24.804-48.206c-2.087-2.773-5.725-3.885-8.999-2.757
		l-54.158,18.649L93.61,8.514c-3.275-1.126-6.912-0.016-8.999,2.757c-9.896,13.163-18.474,29.832-24.805,48.207
		c-15.482,44.97-12.999,85.1,4.914,99.366c0.137,0.109,0.271,0.225,0.41,0.332L30.337,260.223l-19.73-6.794
		c-4.179-1.44-8.731,0.782-10.169,4.96c-1.438,4.178,0.782,8.73,4.96,10.169l54.588,18.796c0.862,0.297,1.741,0.438,2.604,0.438
		c3.32,0,6.423-2.082,7.564-5.397c1.438-4.178-0.782-8.73-4.96-10.169l-19.729-6.98l34.819-101.311c0.009,0,0.017,0,0.025,0
		c4.338,0,8.806-0.901,13.302-2.963c19.485-8.934,39.519-36.041,51.924-72.067c0.788-2.288,1.532-4.53,2.231-6.815
		c0.699,2.285,1.443,4.598,2.231,6.886c0.596,1.729,1.215,3.442,1.845,5.131c1.803,4.833,3.741,9.497,5.797,13.955
		c15.576,33.778,37.776,55.893,57.376,56.05c0.068,0.001,0.139-0.176,0.207-0.176c0.002,0,0.003,0,0.005,0
		c0.118,0,0.233,0.175,0.352,0.173l34.823,101.231l-19.729,6.84c-4.178,1.439-6.398,6.015-4.96,10.192
		c1.142,3.316,4.244,5.409,7.564,5.409c0.863,0,1.742-0.135,2.604-0.432l54.588-18.793
		C294.65,267.117,296.871,262.567,295.432,258.389z M167.363,89.934h59.98c6.147,32.301,0.503,54.387-9.138,57.706
		c-0.939,0.324-1.913,0.294-2.976,0.294h-0.002c-6.637,0-15.815-6.098-24.551-16.62C181.743,120.554,173.581,106.155,167.363,89.934
		z M128.173,89.934c-6.218,16.222-14.381,30.81-23.314,41.569c-8.735,10.523-17.913,16.806-24.549,16.806
		c-0.267,0-0.527-0.01-0.783-0.029c-0.536-0.042-1.051-0.13-1.553-0.261c-0.158-0.066-0.313-0.135-0.477-0.191
		c-0.186-0.063-0.372-0.112-0.559-0.161c-9.402-3.788-14.816-25.878-8.753-57.732H128.173z"/>
	<path d="M176.996,165.253c-14.244-4.551-24.337,2.637-29.225,13.465c-5.879-9.696-14.986-18.016-29.226-13.465
		c-16.907,5.407-34.606,41.693,29.226,82.419C211.597,206.946,193.898,170.66,176.996,165.253z"/>
</g>
</svg>